# File created by Blade
# Date/Time:  Thu Sep 25 17:14:50 2014
# Frame Rate: 120.000 fps
#------------------------------------------------------
:FULLY-SPECIFIED
:DEGREES
486
root 39.184618 30.669125 -2.926468 187.486776 -73.055398 -153.934153
Spine -5.317110 10.670308 -6.239671
Head -2.545862 2.923705 3.279672
LeftShoulder -7.122758 7.344711 43.225151
LeftArm 72.978582 -65.453356 -39.317834
LeftForeArm -47.851620 -0.000000 8.392940
LeftHand -21.366409 -0.000000 -4.305279
LeftHandThumb1 -26.253704 0.000000 33.147579
RightShoulder -71.051137 66.740165 -130.925192
RightArm 3.122197 10.874308 44.643987
RightForeArm -13.332297 -0.000000 36.783563
RightHand -10.523007 -0.000000 -10.646883
RightHandThumb1 -24.326973 -0.000000 -32.862282
LeftUpLeg -76.979510 11.226569 -9.517539
LeftLeg 53.466618 -0.000000 -0.000000
LeftFoot 0.922372 12.504786 -14.854631
LeftToeBase -12.826965 -0.000000 0.000000
RightUpLeg -1.860131 -6.544412 2.910231
RightLeg 0.515913 -0.000000 -0.000000
RightFoot -11.022130 7.962792 8.081028
RightToeBase -12.507419 -0.000000 0.000000
487
root 38.881230 30.604568 -2.932147 187.443351 -73.044535 -153.087625
Spine -5.075309 10.596329 -6.606929
Head -3.295508 3.366290 3.358139
LeftShoulder -6.635959 5.828345 43.617814
LeftArm 69.184316 -63.792030 -37.034291
LeftForeArm -48.426924 -0.000000 8.445897
LeftHand -22.228293 -0.000000 -3.268620
LeftHandThumb1 -26.253704 0.000000 33.147579
RightShoulder -68.632259 66.605394 -128.108690
RightArm 4.013812 11.128002 44.438033
RightForeArm -13.231189 -0.000000 36.364430
RightHand -10.521046 -0.000000 -10.591315
RightHandThumb1 -24.326973 -0.000000 -32.862282
LeftUpLeg -77.591784 11.040513 -9.400449
LeftLeg 54.418940 -0.000000 -0.000000
LeftFoot -0.627330 12.375353 -15.170786
LeftToeBase -12.952463 -0.000000 0.000000
RightUpLeg -2.134257 -6.477219 3.037594
RightLeg 0.535500 -0.000000 -0.000000
RightFoot -10.287140 7.847578 7.438018
RightToeBase -13.638931 -0.000000 0.000000
488
root 38.572571 30.546577 -2.943315 187.226113 -73.029046 -152.059501
Spine -4.758545 10.534294 -6.925275
Head -3.980518 3.722578 3.359201
LeftShoulder -6.225220 4.717512 43.703014
LeftArm 66.697181 -62.487437 -35.811612
LeftForeArm -49.279774 -0.000000 8.406029
LeftHand -22.807278 -0.000000 -2.607746
LeftHandThumb1 -26.253704 0.000000 33.147579
RightShoulder -68.889099 66.831309 -128.410816
RightArm 3.695247 10.720776 44.151959
RightForeArm -13.070205 -0.000000 36.151993
RightHand -10.367925 -0.000000 -10.938994
RightHandThumb1 -24.326973 -0.000000 -32.862282
LeftUpLeg -78.151402 10.859454 -9.212572
LeftLeg 55.313851 -0.000000 -0.000000
LeftFoot -2.189802 12.300328 -15.078325
LeftToeBase -12.809536 -0.000000 0.000000
RightUpLeg -2.475480 -6.765273 3.278430
RightLeg 0.796559 -0.000000 -0.000000
RightFoot -9.768524 8.131881 8.002020
RightToeBase -12.938178 -0.000000 0.000000
489
root 38.266082 30.489741 -2.963152 186.879897 -72.989973 -150.818846
Spine -4.508826 10.499715 -7.218501
Head -4.751083 3.988435 3.266430
LeftShoulder -5.693698 3.361030 43.923026
LeftArm 64.297612 -61.050455 -35.087255
LeftForeArm -50.168881 -0.000000 8.512704
LeftHand -23.473974 0.000000 -1.774790
LeftHandThumb1 -26.253704 0.000000 33.147579
RightShoulder -67.446709 66.783030 -126.770425
RightArm 4.078243 10.824374 44.003728
RightForeArm -12.971898 -0.000000 35.879714
RightHand -10.383602 -0.000000 -11.137983
RightHandThumb1 -24.326973 -0.000000 -32.862282
LeftUpLeg -78.808018 10.791308 -9.069323
LeftLeg 56.200786 -0.000000 -0.000000
LeftFoot -3.760420 12.139638 -15.014958
LeftToeBase -12.402941 -0.000000 0.000000
RightUpLeg -2.953965 -7.147546 3.669376
RightLeg 1.092382 -0.000000 -0.000000
RightFoot -9.214220 8.152447 8.418727
RightToeBase -12.026407 -0.000000 0.000000
490
root 37.955416 30.433449 -2.980264 186.615981 -72.956832 -149.657149
Spine -4.249192 10.429135 -7.581313
Head -5.479436 4.309113 3.189324
LeftShoulder -5.193144 1.866220 44.220274
LeftArm 62.265268 -59.469396 -34.959024
LeftForeArm -51.078864 -0.000000 8.650212
LeftHand -23.878819 -0.000000 -1.049766
LeftHandThumb1 -26.253704 0.000000 33.147579
RightShoulder -66.225186 66.813870 -125.359994
RightArm 4.310571 10.879952 43.846279
RightForeArm -12.998525 -0.000000 35.717752
RightHand -10.565747 0.000000 -11.184384
RightHandThumb1 -24.326973 -0.000000 -32.862282
LeftUpLeg -79.430238 10.697291 -8.938231
LeftLeg 57.042258 -0.000000 -0.000000
LeftFoot -5.248450 12.055664 -14.839917
LeftToeBase -12.146282 -0.000000 0.000000
RightUpLeg -3.443177 -7.497089 4.004673
RightLeg 1.425705 -0.000000 -0.000000
RightFoot -8.677628 8.323721 8.933304
RightToeBase -11.353362 -0.000000 0.000000
491
root 37.641342 30.376222 -3.000230 186.402822 -72.908392 -148.542861
Spine -3.958590 10.318737 -8.000061
Head -6.428725 4.504199 3.144220
LeftShoulder -4.679567 0.580746 44.590751
LeftArm 60.487602 -58.069275 -35.348591
LeftForeArm -51.772980 -0.000000 8.961303
LeftHand -24.628236 -0.000000 -0.419136
LeftHandThumb1 -26.253704 0.000000 33.147579
RightShoulder -65.008163 66.833336 -123.951231
RightArm 4.536759 10.918919 43.745138
RightForeArm -13.100765 0.000000 35.499896
RightHand -10.461265 -0.000000 -11.441464
RightHandThumb1 -24.326973 -0.000000 -32.862282
LeftUpLeg -80.040737 10.614293 -8.818340
LeftLeg 57.898655 -0.000000 -0.000000
LeftFoot -6.815685 12.074425 -14.429500
LeftToeBase -11.480363 -0.000000 0.000000
RightUpLeg -3.940153 -7.842232 4.359470
RightLeg 1.771191 -0.000000 -0.000000
RightFoot -8.133390 8.373950 9.336997
RightToeBase -11.286162 -0.000000 0.000000
492
root 37.319682 30.319005 -3.022960 186.171594 -72.825831 -147.420370
Spine -3.593486 10.260932 -8.450827
Head -7.345491 4.661433 3.102027
LeftShoulder -4.187717 -2.198533 45.176188
LeftArm 57.299311 -55.469808 -34.910137
LeftForeArm -52.333323 -0.000000 9.343266
LeftHand -25.270408 0.000000 -0.435091
LeftHandThumb1 -26.253704 0.000000 33.147579
RightShoulder -63.976586 66.784027 -122.763292
RightArm 4.659485 10.992848 43.733324
RightForeArm -13.389926 -0.000000 35.361980
RightHand -10.471456 0.000000 -11.483213
RightHandThumb1 -24.326973 -0.000000 -32.862282
LeftUpLeg -80.610341 10.586791 -8.695967
LeftLeg 58.715664 -0.000000 -0.000000
LeftFoot -8.323467 11.975387 -14.296051
LeftToeBase -11.260049 -0.000000 0.000000
RightUpLeg -4.420055 -8.251010 4.702968
RightLeg 2.093626 -0.000000 -0.000000
RightFoot -7.528625 8.610129 9.811783
RightToeBase -10.569242 -0.000000 0.000000
493
root 37.001586 30.264474 -3.044962 185.895012 -72.722198 -146.182738
Spine -3.228777 10.170400 -8.865701
Head -8.376644 4.857316 2.949904
LeftShoulder -3.708643 -5.384817 45.983846
LeftArm 53.683931 -52.525065 -34.702988
LeftForeArm -52.742980 -0.000000 10.007054
LeftHand -26.234904 -0.000000 0.444828
LeftHandThumb1 -26.253704 0.000000 33.147579
RightShoulder -63.625727 66.865922 -122.361915
RightArm 4.572724 10.790681 43.686958
RightForeArm -13.665611 -0.000000 35.214390
RightHand -10.543981 -0.000000 -11.522917
RightHandThumb1 -24.326973 -0.000000 -32.862282
LeftUpLeg -81.225372 10.551641 -8.498004
LeftLeg 59.432982 -0.000000 -0.000000
LeftFoot -9.619200 11.694008 -14.360476
LeftToeBase -11.718709 -0.000000 0.000000
RightUpLeg -4.981544 -8.625855 5.126665
RightLeg 2.403992 -0.000000 -0.000000
RightFoot -6.854642 8.661202 10.211248
RightToeBase -10.027433 -0.000000 0.000000
494
root 36.680060 30.208782 -3.061291 185.860410 -72.585741 -145.176892
Spine -2.830617 10.073936 -9.407639
Head -9.547734 5.197068 2.883780
LeftShoulder -3.304604 -9.441165 47.040785
LeftArm 49.214191 -48.840760 -34.342245
LeftForeArm -53.108963 0.000000 10.899573
LeftHand -27.232935 -0.000000 1.215928
LeftHandThumb1 -26.253704 0.000000 33.147579
RightShoulder -62.586891 66.779505 -121.188318
RightArm 4.732340 10.778698 43.676567
RightForeArm -13.896696 -0.000000 35.027184
RightHand -10.543209 -0.000000 -11.544363
RightHandThumb1 -24.326973 -0.000000 -32.862282
LeftUpLeg -81.847559 10.486924 -8.332085
LeftLeg 60.183992 -0.000000 -0.000000
LeftFoot -11.029737 11.669391 -14.409937
LeftToeBase -11.631350 -0.000000 0.000000
RightUpLeg -5.565305 -8.994431 5.450309
RightLeg 2.730463 -0.000000 -0.000000
RightFoot -6.179453 8.900139 10.758408
RightToeBase -9.204033 -0.000000 0.000000
495
root 36.362424 30.154154 -3.081999 185.615869 -72.445885 -143.920774
Spine -2.386360 10.006725 -9.882312
Head -10.836975 5.510735 2.805761
LeftShoulder -3.235594 -39.858387 55.908971
LeftArm 21.142128 -26.307242 -30.880616
LeftForeArm -50.888235 -0.000000 17.607838
LeftHand -28.828580 -0.000000 4.538517
LeftHandThumb1 -26.253704 0.000000 33.147579
RightShoulder -61.496964 66.678665 -120.005411
RightArm 4.866873 10.701227 43.569850
RightForeArm -13.937104 -0.000000 34.812120
RightHand -10.417555 -0.000000 -11.499862
RightHandThumb1 -24.326973 -0.000000 -32.862282
LeftUpLeg -82.522347 10.428143 -8.088346
LeftLeg 60.983978 -0.000000 -0.000000
LeftFoot -12.491295 11.881923 -14.312522
LeftToeBase -11.210740 -0.000000 0.000000
RightUpLeg -6.189173 -9.397615 5.895361
RightLeg 3.046774 -0.000000 -0.000000
RightFoot -5.476920 9.019647 11.246919
RightToeBase -8.367401 -0.000000 0.000000
496
root 36.038522 30.105178 -3.095120 185.500399 -72.290329 -142.762371
Spine -1.975864 9.881735 -10.473999
Head -12.044472 5.942425 2.922724
LeftShoulder -2.545515 -37.571903 54.570523
LeftArm 22.730819 -27.530757 -31.718854
LeftForeArm -53.058274 0.000000 16.515917
LeftHand -29.309129 0.000000 4.910032
LeftHandThumb1 -26.253704 0.000000 33.147579
RightShoulder -60.368741 66.644490 -118.571157
RightArm 5.202433 10.623939 43.482979
RightForeArm -13.823658 -0.000000 34.563318
RightHand -10.315542 -0.000000 -11.445387
RightHandThumb1 -24.326973 -0.000000 -32.862282
LeftUpLeg -83.164635 10.315615 -7.784767
LeftLeg 61.679216 -0.000000 -0.000000
LeftFoot -13.859920 11.975241 -14.402106
LeftToeBase -11.026363 -0.000000 0.000000
RightUpLeg -6.835895 -9.740233 6.276258
RightLeg 3.321351 -0.000000 -0.000000
RightFoot -4.701080 9.185982 11.662683
RightToeBase -7.014597 -0.000000 0.000000
